<svg width="151" height="27" viewBox="0 0 151 27" fill="none" xmlns="http://www.w3.org/2000/svg">
    <path d="M1.515 26C1.095 26 0.745 25.86 0.465 25.58C0.208334 25.3 0.0800002 24.9617 0.0800002 24.565V2.9C0.0800002 2.50333 0.208334 2.17667 0.465 1.92C0.745 1.64 1.08333 1.5 1.48 1.5H13.765C14.1617 1.5 14.5 1.62833 14.78 1.885C15.06 2.14167 15.2 2.46833 15.2 2.865C15.2 3.23833 15.06 3.55333 14.78 3.81C14.5 4.06667 14.1617 4.195 13.765 4.195H2.74L2.95 3.915V12.49L2.775 12.105H12.19C12.5867 12.105 12.925 12.245 13.205 12.525C13.485 12.7817 13.625 13.1083 13.625 13.505C13.625 13.855 13.485 14.17 13.205 14.45C12.925 14.7067 12.5867 14.835 12.19 14.835H2.705L2.95 14.52V24.565C2.95 24.9617 2.81 25.3 2.53 25.58C2.25 25.86 1.91167 26 1.515 26ZM20.4724 26C20.0758 26 19.7374 25.86 19.4574 25.58C19.2008 25.3 19.0724 24.9617 19.0724 24.565V9.305C19.0724 8.90833 19.2008 8.58167 19.4574 8.325C19.7374 8.045 20.0758 7.905 20.4724 7.905C20.8924 7.905 21.2308 8.045 21.4874 8.325C21.7441 8.58167 21.8724 8.90833 21.8724 9.305V13.925L21.4524 13.19C21.5924 12.4667 21.8374 11.7667 22.1874 11.09C22.5608 10.39 23.0274 9.77167 23.5874 9.235C24.1474 8.675 24.7891 8.24333 25.5124 7.94C26.2358 7.61333 27.0291 7.45 27.8924 7.45C28.4058 7.45 28.8724 7.57833 29.2924 7.835C29.7358 8.06833 29.9574 8.40667 29.9574 8.85C29.9574 9.34 29.8291 9.70167 29.5724 9.935C29.3158 10.1683 29.0241 10.285 28.6974 10.285C28.3941 10.285 28.1024 10.2267 27.8224 10.11C27.5424 9.97 27.1924 9.9 26.7724 9.9C26.1891 9.9 25.6058 10.0633 25.0224 10.39C24.4624 10.6933 23.9374 11.1367 23.4474 11.72C22.9808 12.3033 22.5958 12.9683 22.2924 13.715C22.0124 14.4383 21.8724 15.22 21.8724 16.06V24.565C21.8724 24.9617 21.7324 25.3 21.4524 25.58C21.1958 25.86 20.8691 26 20.4724 26ZM40.6991 26.35C38.8325 26.35 37.1991 25.9533 35.7991 25.16C34.3991 24.3667 33.3025 23.2817 32.5091 21.905C31.7391 20.505 31.3541 18.895 31.3541 17.075C31.3541 15.045 31.7508 13.3183 32.5441 11.895C33.3608 10.4483 34.4108 9.35167 35.6941 8.605C37.0008 7.835 38.3775 7.45 39.8241 7.45C40.8975 7.45 41.9358 7.64833 42.9391 8.045C43.9425 8.44167 44.8291 9.025 45.5991 9.795C46.3691 10.5417 46.9875 11.4517 47.4541 12.525C47.9208 13.575 48.1658 14.7533 48.1891 16.06C48.1891 16.4333 48.0491 16.7483 47.7691 17.005C47.4891 17.2617 47.1625 17.39 46.7891 17.39H32.9641L32.3341 14.975H45.8091L45.2491 15.465V14.695C45.1558 13.7383 44.8291 12.9217 44.2691 12.245C43.7325 11.545 43.0675 11.0083 42.2741 10.635C41.5041 10.2617 40.6875 10.075 39.8241 10.075C39.1241 10.075 38.4241 10.2033 37.7241 10.46C37.0475 10.6933 36.4291 11.09 35.8691 11.65C35.3325 12.1867 34.8891 12.8867 34.5391 13.75C34.2125 14.6133 34.0491 15.6517 34.0491 16.865C34.0491 18.2183 34.3175 19.4083 34.8541 20.435C35.4141 21.4617 36.1841 22.2783 37.1641 22.885C38.1441 23.4683 39.2875 23.76 40.5941 23.76C41.4108 23.76 42.1225 23.655 42.7291 23.445C43.3358 23.235 43.8608 22.9783 44.3041 22.675C44.7475 22.3483 45.1208 22.0217 45.4241 21.695C45.7275 21.485 46.0191 21.38 46.2991 21.38C46.6491 21.38 46.9291 21.4967 47.1391 21.73C47.3725 21.9633 47.4891 22.2433 47.4891 22.57C47.4891 22.9667 47.3025 23.3167 46.9291 23.62C46.2758 24.3433 45.3891 24.985 44.2691 25.545C43.1491 26.0817 41.9591 26.35 40.6991 26.35ZM60.7626 26.35C58.896 26.35 57.2626 25.9533 55.8626 25.16C54.4626 24.3667 53.366 23.2817 52.5726 21.905C51.8026 20.505 51.4176 18.895 51.4176 17.075C51.4176 15.045 51.8143 13.3183 52.6076 11.895C53.4243 10.4483 54.4743 9.35167 55.7576 8.605C57.0643 7.835 58.441 7.45 59.8876 7.45C60.961 7.45 61.9993 7.64833 63.0026 8.045C64.006 8.44167 64.8926 9.025 65.6626 9.795C66.4326 10.5417 67.051 11.4517 67.5176 12.525C67.9843 13.575 68.2293 14.7533 68.2526 16.06C68.2526 16.4333 68.1126 16.7483 67.8326 17.005C67.5526 17.2617 67.226 17.39 66.8526 17.39H53.0276L52.3976 14.975H65.8726L65.3126 15.465V14.695C65.2193 13.7383 64.8926 12.9217 64.3326 12.245C63.796 11.545 63.131 11.0083 62.3376 10.635C61.5676 10.2617 60.751 10.075 59.8876 10.075C59.1876 10.075 58.4876 10.2033 57.7876 10.46C57.111 10.6933 56.4926 11.09 55.9326 11.65C55.396 12.1867 54.9526 12.8867 54.6026 13.75C54.276 14.6133 54.1126 15.6517 54.1126 16.865C54.1126 18.2183 54.381 19.4083 54.9176 20.435C55.4776 21.4617 56.2476 22.2783 57.2276 22.885C58.2076 23.4683 59.351 23.76 60.6576 23.76C61.4743 23.76 62.186 23.655 62.7926 23.445C63.3993 23.235 63.9243 22.9783 64.3676 22.675C64.811 22.3483 65.1843 22.0217 65.4876 21.695C65.791 21.485 66.0826 21.38 66.3626 21.38C66.7126 21.38 66.9926 21.4967 67.2026 21.73C67.436 21.9633 67.5526 22.2433 67.5526 22.57C67.5526 22.9667 67.366 23.3167 66.9926 23.62C66.3393 24.3433 65.4526 24.985 64.3326 25.545C63.2126 26.0817 62.0226 26.35 60.7626 26.35ZM81.2111 7.625C82.7511 7.625 83.9644 7.96333 84.8511 8.64C85.7611 9.29333 86.4028 10.18 86.7761 11.3C87.1728 12.3967 87.3711 13.6217 87.3711 14.975V24.565C87.3711 24.9617 87.2311 25.3 86.9511 25.58C86.6944 25.86 86.3678 26 85.9711 26C85.5744 26 85.2361 25.86 84.9561 25.58C84.6994 25.3 84.5711 24.9617 84.5711 24.565V14.975C84.5711 14.0883 84.4428 13.295 84.1861 12.595C83.9294 11.8717 83.4978 11.3 82.8911 10.88C82.3078 10.4367 81.5028 10.215 80.4761 10.215C79.5194 10.215 78.6444 10.4367 77.8511 10.88C77.0578 11.3 76.4278 11.8717 75.9611 12.595C75.4944 13.295 75.2611 14.0883 75.2611 14.975V24.565C75.2611 24.9617 75.1211 25.3 74.8411 25.58C74.5844 25.86 74.2578 26 73.8611 26C73.4644 26 73.1261 25.86 72.8461 25.58C72.5894 25.3 72.4611 24.9617 72.4611 24.565V1.5C72.4611 1.10333 72.5894 0.776666 72.8461 0.519998C73.1261 0.239999 73.4644 0.0999997 73.8611 0.0999997C74.2811 0.0999997 74.6194 0.239999 74.8761 0.519998C75.1328 0.776666 75.2611 1.10333 75.2611 1.5V11.965L74.5611 12.735C74.6778 12.1283 74.9344 11.5217 75.3311 10.915C75.7278 10.285 76.2294 9.725 76.8361 9.235C77.4428 8.745 78.1194 8.36 78.8661 8.08C79.6128 7.77667 80.3944 7.625 81.2111 7.625ZM107.469 7.73C107.865 7.73 108.192 7.87 108.449 8.15C108.729 8.40667 108.869 8.73333 108.869 9.13V24.565C108.869 24.9617 108.729 25.3 108.449 25.58C108.192 25.86 107.865 26 107.469 26C107.049 26 106.71 25.86 106.454 25.58C106.197 25.3 106.069 24.9617 106.069 24.565V21.24L106.734 21.17C106.734 21.6833 106.559 22.2433 106.209 22.85C105.859 23.4567 105.38 24.0283 104.774 24.565C104.167 25.0783 103.444 25.51 102.604 25.86C101.787 26.1867 100.9 26.35 99.9438 26.35C98.3571 26.35 96.9338 25.9417 95.6738 25.125C94.4138 24.285 93.4104 23.1533 92.6638 21.73C91.9404 20.3067 91.5788 18.685 91.5788 16.865C91.5788 15.0217 91.9404 13.4 92.6638 12C93.4104 10.5767 94.4138 9.46833 95.6738 8.675C96.9338 7.85833 98.3338 7.45 99.8738 7.45C100.877 7.45 101.81 7.61333 102.674 7.94C103.537 8.26667 104.284 8.71 104.914 9.27C105.567 9.83 106.069 10.4483 106.419 11.125C106.792 11.8017 106.979 12.4783 106.979 13.155L106.069 12.945V9.13C106.069 8.73333 106.197 8.40667 106.454 8.15C106.71 7.87 107.049 7.73 107.469 7.73ZM100.259 23.76C101.425 23.76 102.452 23.4567 103.339 22.85C104.249 22.2433 104.949 21.4267 105.439 20.4C105.952 19.35 106.209 18.1717 106.209 16.865C106.209 15.5817 105.952 14.4267 105.439 13.4C104.949 12.35 104.249 11.5333 103.339 10.95C102.452 10.3433 101.425 10.04 100.259 10.04C99.1154 10.04 98.0888 10.3317 97.1788 10.915C96.2921 11.4983 95.5921 12.3033 95.0788 13.33C94.5654 14.3567 94.3088 15.535 94.3088 16.865C94.3088 18.1717 94.5538 19.35 95.0438 20.4C95.5571 21.4267 96.2571 22.2433 97.1438 22.85C98.0538 23.4567 99.0921 23.76 100.259 23.76ZM123.053 7.45C124.639 7.45 125.888 7.77667 126.798 8.43C127.708 9.08333 128.349 9.95833 128.723 11.055C129.119 12.1517 129.318 13.3767 129.318 14.73V24.565C129.318 24.9617 129.178 25.3 128.898 25.58C128.641 25.86 128.314 26 127.918 26C127.521 26 127.183 25.86 126.903 25.58C126.646 25.3 126.518 24.9617 126.518 24.565V14.8C126.518 13.9133 126.378 13.12 126.098 12.42C125.841 11.6967 125.398 11.125 124.768 10.705C124.161 10.2617 123.321 10.04 122.248 10.04C121.268 10.04 120.369 10.2617 119.553 10.705C118.736 11.125 118.083 11.6967 117.593 12.42C117.103 13.12 116.858 13.9133 116.858 14.8V24.565C116.858 24.9617 116.718 25.3 116.438 25.58C116.181 25.86 115.854 26 115.458 26C115.061 26 114.723 25.86 114.443 25.58C114.186 25.3 114.058 24.9617 114.058 24.565V9.305C114.058 8.90833 114.186 8.58167 114.443 8.325C114.723 8.045 115.061 7.905 115.458 7.905C115.878 7.905 116.216 8.045 116.473 8.325C116.729 8.58167 116.858 8.90833 116.858 9.305V11.79L116.158 12.56C116.274 11.9533 116.543 11.3467 116.963 10.74C117.383 10.11 117.908 9.55 118.538 9.06C119.168 8.57 119.868 8.185 120.638 7.905C121.408 7.60167 122.213 7.45 123.053 7.45ZM149.407 0.0999997C149.804 0.0999997 150.131 0.239999 150.387 0.519998C150.667 0.776666 150.807 1.10333 150.807 1.5V24.565C150.807 24.9617 150.667 25.3 150.387 25.58C150.131 25.86 149.804 26 149.407 26C148.987 26 148.649 25.86 148.392 25.58C148.136 25.3 148.007 24.9617 148.007 24.565V21.24L148.672 20.995C148.672 21.555 148.497 22.15 148.147 22.78C147.797 23.3867 147.319 23.9583 146.712 24.495C146.106 25.0317 145.382 25.475 144.542 25.825C143.726 26.175 142.839 26.35 141.882 26.35C140.319 26.35 138.896 25.9417 137.612 25.125C136.352 24.3083 135.349 23.1883 134.602 21.765C133.879 20.3417 133.517 18.72 133.517 16.9C133.517 15.0567 133.879 13.4233 134.602 12C135.349 10.5767 136.352 9.46833 137.612 8.675C138.872 7.85833 140.272 7.45 141.812 7.45C142.792 7.45 143.714 7.61333 144.577 7.94C145.441 8.26667 146.187 8.71 146.817 9.27C147.471 9.83 147.984 10.4483 148.357 11.125C148.731 11.8017 148.917 12.4783 148.917 13.155L148.007 12.945V1.5C148.007 1.10333 148.136 0.776666 148.392 0.519998C148.649 0.239999 148.987 0.0999997 149.407 0.0999997ZM142.197 23.76C143.364 23.76 144.391 23.4683 145.277 22.885C146.187 22.2783 146.887 21.4617 147.377 20.435C147.891 19.385 148.147 18.2067 148.147 16.9C148.147 15.57 147.891 14.3917 147.377 13.365C146.887 12.3383 146.187 11.5333 145.277 10.95C144.391 10.3433 143.364 10.04 142.197 10.04C141.054 10.04 140.027 10.3433 139.117 10.95C138.231 11.5333 137.531 12.3383 137.017 13.365C136.504 14.3917 136.247 15.57 136.247 16.9C136.247 18.1833 136.504 19.35 137.017 20.4C137.531 21.4267 138.231 22.2433 139.117 22.85C140.027 23.4567 141.054 23.76 142.197 23.76Z"
          fill="#16133D"/>
</svg>
