<svg width="195" height="35" viewBox="0 0 195 35" fill="none" xmlns="http://www.w3.org/2000/svg">
<path d="M21.5934 16.4064C21.3329 16.4665 21.1489 16.6988 21.1489 16.9656M21.5934 16.4064L21.6495 16.6495L21.593 16.4065C21.5932 16.4064 21.5933 16.4064 21.5934 16.4064ZM21.5934 16.4064C24.2485 15.789 26.1017 13.4561 26.1017 10.731C26.1017 7.51494 23.4851 4.89828 20.2692 4.89828C17.5248 4.89828 15.1239 6.8465 14.5619 9.5284C14.5063 9.79431 14.2717 9.9848 14.0001 9.9848C13.7285 9.9848 13.4938 9.79432 13.4382 9.52841C12.8761 6.8465 10.4752 4.89828 7.7308 4.89828C4.51495 4.89828 1.89828 7.51494 1.89828 10.731C1.89828 13.4561 3.7515 15.789 6.40659 16.4064L21.1489 16.9656M21.1489 16.9656C21.1489 17.2322 21.3328 17.4644 21.593 17.5247C24.2483 18.1419 26.1017 20.4749 26.1017 23.2002C26.1017 26.4162 23.4851 29.0329 20.2692 29.0329C17.5248 29.0329 15.1239 27.0847 14.5619 24.4028M21.1489 16.9656L14.5619 24.4028M14.5619 24.4028C14.5063 24.1368 14.2717 23.9464 14.0001 23.9464C13.7285 23.9464 13.4938 24.1368 13.4382 24.4027C12.8761 27.0847 10.4752 29.0329 7.7308 29.0329C4.51495 29.0329 1.89828 26.4162 1.89828 23.2002C1.89828 20.4749 3.75168 18.1419 6.40696 17.5247C6.66724 17.4644 6.85106 17.2322 6.85106 16.9656C6.85106 16.699 6.66724 16.4667 6.40696 16.4065L14.5619 24.4028ZM27.25 10.731C27.25 6.88143 24.1186 3.75 20.2692 3.75C17.5704 3.75 15.1516 5.32181 14.0001 7.66239C12.8484 5.32181 10.4294 3.75 7.7308 3.75C3.88142 3.75 0.75 6.88143 0.75 10.731C0.75 13.4277 2.26822 15.8058 4.5914 16.9656C2.26822 18.1253 0.75 20.5034 0.75 23.2002C0.75 27.0497 3.88142 30.1812 7.7308 30.1812C10.4294 30.1812 12.8484 28.6093 14.0001 26.2688C15.1516 28.6093 17.5704 30.1812 20.2692 30.1812C24.1186 30.1812 27.25 27.0497 27.25 23.2002C27.25 20.5034 25.7318 18.1253 23.4086 16.9656C25.7318 15.8058 27.25 13.4277 27.25 10.731Z" fill="#3DB370" stroke="#3DB370" stroke-width="0.5"/>
<path d="M45.515 31C45.095 31 44.745 30.86 44.465 30.58C44.2083 30.3 44.08 29.9617 44.08 29.565V7.9C44.08 7.50333 44.2083 7.17667 44.465 6.92C44.745 6.64 45.0833 6.5 45.48 6.5H57.765C58.1617 6.5 58.5 6.62833 58.78 6.885C59.06 7.14167 59.2 7.46833 59.2 7.865C59.2 8.23833 59.06 8.55333 58.78 8.81C58.5 9.06667 58.1617 9.195 57.765 9.195H46.74L46.95 8.915V17.49L46.775 17.105H56.19C56.5867 17.105 56.925 17.245 57.205 17.525C57.485 17.7817 57.625 18.1083 57.625 18.505C57.625 18.855 57.485 19.17 57.205 19.45C56.925 19.7067 56.5867 19.835 56.19 19.835H46.705L46.95 19.52V29.565C46.95 29.9617 46.81 30.3 46.53 30.58C46.25 30.86 45.9117 31 45.515 31ZM64.4724 31C64.0758 31 63.7374 30.86 63.4574 30.58C63.2008 30.3 63.0724 29.9617 63.0724 29.565V14.305C63.0724 13.9083 63.2008 13.5817 63.4574 13.325C63.7374 13.045 64.0758 12.905 64.4724 12.905C64.8924 12.905 65.2308 13.045 65.4874 13.325C65.7441 13.5817 65.8724 13.9083 65.8724 14.305V18.925L65.4524 18.19C65.5924 17.4667 65.8374 16.7667 66.1874 16.09C66.5608 15.39 67.0274 14.7717 67.5874 14.235C68.1474 13.675 68.7891 13.2433 69.5124 12.94C70.2358 12.6133 71.0291 12.45 71.8924 12.45C72.4058 12.45 72.8724 12.5783 73.2924 12.835C73.7358 13.0683 73.9574 13.4067 73.9574 13.85C73.9574 14.34 73.8291 14.7017 73.5724 14.935C73.3158 15.1683 73.0241 15.285 72.6974 15.285C72.3941 15.285 72.1024 15.2267 71.8224 15.11C71.5424 14.97 71.1924 14.9 70.7724 14.9C70.1891 14.9 69.6058 15.0633 69.0224 15.39C68.4624 15.6933 67.9374 16.1367 67.4474 16.72C66.9808 17.3033 66.5958 17.9683 66.2924 18.715C66.0124 19.4383 65.8724 20.22 65.8724 21.06V29.565C65.8724 29.9617 65.7324 30.3 65.4524 30.58C65.1958 30.86 64.8691 31 64.4724 31ZM84.6991 31.35C82.8325 31.35 81.1991 30.9533 79.7991 30.16C78.3991 29.3667 77.3025 28.2817 76.5091 26.905C75.7391 25.505 75.3541 23.895 75.3541 22.075C75.3541 20.045 75.7508 18.3183 76.5441 16.895C77.3608 15.4483 78.4108 14.3517 79.6941 13.605C81.0008 12.835 82.3775 12.45 83.8241 12.45C84.8975 12.45 85.9358 12.6483 86.9391 13.045C87.9425 13.4417 88.8291 14.025 89.5991 14.795C90.3691 15.5417 90.9875 16.4517 91.4541 17.525C91.9208 18.575 92.1658 19.7533 92.1891 21.06C92.1891 21.4333 92.0491 21.7483 91.7691 22.005C91.4891 22.2617 91.1625 22.39 90.7891 22.39H76.9641L76.3341 19.975H89.8091L89.2491 20.465V19.695C89.1558 18.7383 88.8291 17.9217 88.2691 17.245C87.7325 16.545 87.0675 16.0083 86.2741 15.635C85.5041 15.2617 84.6875 15.075 83.8241 15.075C83.1241 15.075 82.4241 15.2033 81.7241 15.46C81.0475 15.6933 80.4291 16.09 79.8691 16.65C79.3325 17.1867 78.8891 17.8867 78.5391 18.75C78.2125 19.6133 78.0491 20.6517 78.0491 21.865C78.0491 23.2183 78.3175 24.4083 78.8541 25.435C79.4141 26.4617 80.1841 27.2783 81.1641 27.885C82.1441 28.4683 83.2875 28.76 84.5941 28.76C85.4108 28.76 86.1225 28.655 86.7291 28.445C87.3358 28.235 87.8608 27.9783 88.3041 27.675C88.7475 27.3483 89.1208 27.0217 89.4241 26.695C89.7275 26.485 90.0191 26.38 90.2991 26.38C90.6491 26.38 90.9291 26.4967 91.1391 26.73C91.3725 26.9633 91.4891 27.2433 91.4891 27.57C91.4891 27.9667 91.3025 28.3167 90.9291 28.62C90.2758 29.3433 89.3891 29.985 88.2691 30.545C87.1491 31.0817 85.9591 31.35 84.6991 31.35ZM104.763 31.35C102.896 31.35 101.263 30.9533 99.8626 30.16C98.4626 29.3667 97.366 28.2817 96.5726 26.905C95.8026 25.505 95.4176 23.895 95.4176 22.075C95.4176 20.045 95.8143 18.3183 96.6076 16.895C97.4243 15.4483 98.4743 14.3517 99.7576 13.605C101.064 12.835 102.441 12.45 103.888 12.45C104.961 12.45 105.999 12.6483 107.003 13.045C108.006 13.4417 108.893 14.025 109.663 14.795C110.433 15.5417 111.051 16.4517 111.518 17.525C111.984 18.575 112.229 19.7533 112.253 21.06C112.253 21.4333 112.113 21.7483 111.833 22.005C111.553 22.2617 111.226 22.39 110.853 22.39H97.0276L96.3976 19.975H109.873L109.313 20.465V19.695C109.219 18.7383 108.893 17.9217 108.333 17.245C107.796 16.545 107.131 16.0083 106.338 15.635C105.568 15.2617 104.751 15.075 103.888 15.075C103.188 15.075 102.488 15.2033 101.788 15.46C101.111 15.6933 100.493 16.09 99.9326 16.65C99.396 17.1867 98.9526 17.8867 98.6026 18.75C98.276 19.6133 98.1126 20.6517 98.1126 21.865C98.1126 23.2183 98.381 24.4083 98.9176 25.435C99.4776 26.4617 100.248 27.2783 101.228 27.885C102.208 28.4683 103.351 28.76 104.658 28.76C105.474 28.76 106.186 28.655 106.793 28.445C107.399 28.235 107.924 27.9783 108.368 27.675C108.811 27.3483 109.184 27.0217 109.488 26.695C109.791 26.485 110.083 26.38 110.363 26.38C110.713 26.38 110.993 26.4967 111.203 26.73C111.436 26.9633 111.553 27.2433 111.553 27.57C111.553 27.9667 111.366 28.3167 110.993 28.62C110.339 29.3433 109.453 29.985 108.333 30.545C107.213 31.0817 106.023 31.35 104.763 31.35ZM125.211 12.625C126.751 12.625 127.964 12.9633 128.851 13.64C129.761 14.2933 130.403 15.18 130.776 16.3C131.173 17.3967 131.371 18.6217 131.371 19.975V29.565C131.371 29.9617 131.231 30.3 130.951 30.58C130.694 30.86 130.368 31 129.971 31C129.574 31 129.236 30.86 128.956 30.58C128.699 30.3 128.571 29.9617 128.571 29.565V19.975C128.571 19.0883 128.443 18.295 128.186 17.595C127.929 16.8717 127.498 16.3 126.891 15.88C126.308 15.4367 125.503 15.215 124.476 15.215C123.519 15.215 122.644 15.4367 121.851 15.88C121.058 16.3 120.428 16.8717 119.961 17.595C119.494 18.295 119.261 19.0883 119.261 19.975V29.565C119.261 29.9617 119.121 30.3 118.841 30.58C118.584 30.86 118.258 31 117.861 31C117.464 31 117.126 30.86 116.846 30.58C116.589 30.3 116.461 29.9617 116.461 29.565V6.5C116.461 6.10333 116.589 5.77667 116.846 5.52C117.126 5.24 117.464 5.1 117.861 5.1C118.281 5.1 118.619 5.24 118.876 5.52C119.133 5.77667 119.261 6.10333 119.261 6.5V16.965L118.561 17.735C118.678 17.1283 118.934 16.5217 119.331 15.915C119.728 15.285 120.229 14.725 120.836 14.235C121.443 13.745 122.119 13.36 122.866 13.08C123.613 12.7767 124.394 12.625 125.211 12.625ZM151.469 12.73C151.865 12.73 152.192 12.87 152.449 13.15C152.729 13.4067 152.869 13.7333 152.869 14.13V29.565C152.869 29.9617 152.729 30.3 152.449 30.58C152.192 30.86 151.865 31 151.469 31C151.049 31 150.71 30.86 150.454 30.58C150.197 30.3 150.069 29.9617 150.069 29.565V26.24L150.734 26.17C150.734 26.6833 150.559 27.2433 150.209 27.85C149.859 28.4567 149.38 29.0283 148.774 29.565C148.167 30.0783 147.444 30.51 146.604 30.86C145.787 31.1867 144.9 31.35 143.944 31.35C142.357 31.35 140.934 30.9417 139.674 30.125C138.414 29.285 137.41 28.1533 136.664 26.73C135.94 25.3067 135.579 23.685 135.579 21.865C135.579 20.0217 135.94 18.4 136.664 17C137.41 15.5767 138.414 14.4683 139.674 13.675C140.934 12.8583 142.334 12.45 143.874 12.45C144.877 12.45 145.81 12.6133 146.674 12.94C147.537 13.2667 148.284 13.71 148.914 14.27C149.567 14.83 150.069 15.4483 150.419 16.125C150.792 16.8017 150.979 17.4783 150.979 18.155L150.069 17.945V14.13C150.069 13.7333 150.197 13.4067 150.454 13.15C150.71 12.87 151.049 12.73 151.469 12.73ZM144.259 28.76C145.425 28.76 146.452 28.4567 147.339 27.85C148.249 27.2433 148.949 26.4267 149.439 25.4C149.952 24.35 150.209 23.1717 150.209 21.865C150.209 20.5817 149.952 19.4267 149.439 18.4C148.949 17.35 148.249 16.5333 147.339 15.95C146.452 15.3433 145.425 15.04 144.259 15.04C143.115 15.04 142.089 15.3317 141.179 15.915C140.292 16.4983 139.592 17.3033 139.079 18.33C138.565 19.3567 138.309 20.535 138.309 21.865C138.309 23.1717 138.554 24.35 139.044 25.4C139.557 26.4267 140.257 27.2433 141.144 27.85C142.054 28.4567 143.092 28.76 144.259 28.76ZM167.053 12.45C168.639 12.45 169.888 12.7767 170.798 13.43C171.708 14.0833 172.349 14.9583 172.723 16.055C173.119 17.1517 173.318 18.3767 173.318 19.73V29.565C173.318 29.9617 173.178 30.3 172.898 30.58C172.641 30.86 172.314 31 171.918 31C171.521 31 171.183 30.86 170.903 30.58C170.646 30.3 170.518 29.9617 170.518 29.565V19.8C170.518 18.9133 170.378 18.12 170.098 17.42C169.841 16.6967 169.398 16.125 168.768 15.705C168.161 15.2617 167.321 15.04 166.248 15.04C165.268 15.04 164.369 15.2617 163.553 15.705C162.736 16.125 162.083 16.6967 161.593 17.42C161.103 18.12 160.858 18.9133 160.858 19.8V29.565C160.858 29.9617 160.718 30.3 160.438 30.58C160.181 30.86 159.854 31 159.458 31C159.061 31 158.723 30.86 158.443 30.58C158.186 30.3 158.058 29.9617 158.058 29.565V14.305C158.058 13.9083 158.186 13.5817 158.443 13.325C158.723 13.045 159.061 12.905 159.458 12.905C159.878 12.905 160.216 13.045 160.473 13.325C160.729 13.5817 160.858 13.9083 160.858 14.305V16.79L160.158 17.56C160.274 16.9533 160.543 16.3467 160.963 15.74C161.383 15.11 161.908 14.55 162.538 14.06C163.168 13.57 163.868 13.185 164.638 12.905C165.408 12.6017 166.213 12.45 167.053 12.45ZM193.407 5.1C193.804 5.1 194.131 5.24 194.387 5.52C194.667 5.77667 194.807 6.10333 194.807 6.5V29.565C194.807 29.9617 194.667 30.3 194.387 30.58C194.131 30.86 193.804 31 193.407 31C192.987 31 192.649 30.86 192.392 30.58C192.136 30.3 192.007 29.9617 192.007 29.565V26.24L192.672 25.995C192.672 26.555 192.497 27.15 192.147 27.78C191.797 28.3867 191.319 28.9583 190.712 29.495C190.106 30.0317 189.382 30.475 188.542 30.825C187.726 31.175 186.839 31.35 185.882 31.35C184.319 31.35 182.896 30.9417 181.612 30.125C180.352 29.3083 179.349 28.1883 178.602 26.765C177.879 25.3417 177.517 23.72 177.517 21.9C177.517 20.0567 177.879 18.4233 178.602 17C179.349 15.5767 180.352 14.4683 181.612 13.675C182.872 12.8583 184.272 12.45 185.812 12.45C186.792 12.45 187.714 12.6133 188.577 12.94C189.441 13.2667 190.187 13.71 190.817 14.27C191.471 14.83 191.984 15.4483 192.357 16.125C192.731 16.8017 192.917 17.4783 192.917 18.155L192.007 17.945V6.5C192.007 6.10333 192.136 5.77667 192.392 5.52C192.649 5.24 192.987 5.1 193.407 5.1ZM186.197 28.76C187.364 28.76 188.391 28.4683 189.277 27.885C190.187 27.2783 190.887 26.4617 191.377 25.435C191.891 24.385 192.147 23.2067 192.147 21.9C192.147 20.57 191.891 19.3917 191.377 18.365C190.887 17.3383 190.187 16.5333 189.277 15.95C188.391 15.3433 187.364 15.04 186.197 15.04C185.054 15.04 184.027 15.3433 183.117 15.95C182.231 16.5333 181.531 17.3383 181.017 18.365C180.504 19.3917 180.247 20.57 180.247 21.9C180.247 23.1833 180.504 24.35 181.017 25.4C181.531 26.4267 182.231 27.2433 183.117 27.85C184.027 28.4567 185.054 28.76 186.197 28.76Z" fill="#16133D"/>
</svg>
